<svg version="1.1" id="Layer_1" xmlns="http://www.w3.org/2000/svg" xmlns:xlink="http://www.w3.org/1999/xlink" x="0px" y="0px"
	 width="100%" viewBox="0 0 512 512" enable-background="new 0 0 512 512" xml:space="preserve">
<path fill="#556080" opacity="1.000000" stroke="none" 
	d="
M259.000000,513.000000 
	C258.555664,513.000000 258.111328,513.000000 257.333496,512.531372 
	C256.979797,418.199646 256.959595,324.336609 257.287354,230.328613 
	C259.884430,229.101212 262.148132,228.048203 264.380371,226.932175 
	C335.978668,191.136673 407.572845,155.332932 479.173950,119.543030 
	C481.700409,118.280167 484.290741,117.144997 486.913513,116.422150 
	C486.975769,210.810410 486.975769,304.726807 486.975769,398.504028 
	C425.155273,429.422699 363.593597,460.182648 302.064087,491.006836 
	C287.653412,498.226135 273.351807,505.663147 259.000000,513.000000 
z"/>
<path fill="#434C6D" opacity="1.000000" stroke="none" 
	d="
M256.939362,230.473587 
	C256.959595,324.336609 256.979797,418.199646 257.000000,512.531372 
	C256.555542,513.000000 256.111115,513.000000 255.214966,512.660278 
	C254.452805,512.201721 254.129562,512.108521 253.833710,511.960480 
	C179.537491,474.788818 105.255547,437.588531 30.905960,400.523956 
	C27.758198,398.954742 26.926052,397.170990 26.929270,393.850739 
	C27.017593,302.711884 26.999252,211.572937 27.005888,120.433998 
	C27.005997,118.937172 27.095314,117.440353 27.484814,116.031891 
	C97.303925,150.960403 166.775253,185.812469 236.267914,220.621948 
	C243.091278,224.039810 250.045746,227.195969 256.939362,230.473587 
z"/>
<path fill="#7383BF" opacity="1.000000" stroke="none" 
	d="
M257.287354,230.328613 
	C250.045746,227.195969 243.091278,224.039810 236.267914,220.621948 
	C166.775253,185.812469 97.303925,150.960403 27.573521,115.707138 
	C29.156000,114.211655 30.947010,113.043747 32.834160,112.060326 
	C49.181412,103.541557 65.552109,95.067802 81.903900,86.557747 
	C107.167320,73.409767 132.391693,60.186405 157.688095,47.102257 
	C180.648621,35.226315 203.706604,23.538824 226.670303,11.668941 
	C233.205643,8.290833 239.561722,4.565890 246.000000,0.999999 
	C247.388885,1.000000 248.777786,1.000000 250.733597,1.318857 
	C277.981232,14.460442 304.665375,27.275978 331.341400,40.108402 
	C349.425659,48.807758 367.510925,57.505280 385.573334,66.249802 
	C408.083801,77.147766 430.593536,88.047737 453.059357,99.037270 
	C464.373749,104.571892 475.590424,110.306252 486.851288,115.950294 
	C484.290741,117.144997 481.700409,118.280167 479.173950,119.543030 
	C407.572845,155.332932 335.978668,191.136673 264.380371,226.932175 
	C262.148132,228.048203 259.884430,229.101212 257.287354,230.328613 
z"/>
<path fill="#FFFFFF" opacity="1.000000" stroke="none" 
	d="
M486.913513,116.422150 
	C475.590424,110.306252 464.373749,104.571892 453.059357,99.037270 
	C430.593536,88.047737 408.083801,77.147766 385.573334,66.249802 
	C367.510925,57.505280 349.425659,48.807758 331.341400,40.108402 
	C304.665375,27.275978 277.981232,14.460442 251.150269,1.318857 
	C338.296173,1.000000 425.592316,1.000000 512.944214,1.000000 
	C512.944214,171.556854 512.944214,342.113708 512.944214,513.000000 
	C428.646057,513.000000 344.291687,513.000000 259.468658,513.000000 
	C273.351807,505.663147 287.653412,498.226135 302.064087,491.006836 
	C363.593597,460.182648 425.155273,429.422699 486.975769,398.504028 
	C486.975769,304.726807 486.975769,210.810410 486.913513,116.422150 
z"/>
<path fill="#FFFFFF" opacity="1.000000" stroke="none" 
	d="
M245.531342,0.999999 
	C239.561722,4.565890 233.205643,8.290833 226.670303,11.668941 
	C203.706604,23.538824 180.648621,35.226315 157.688095,47.102257 
	C132.391693,60.186405 107.167320,73.409767 81.903900,86.557747 
	C65.552109,95.067802 49.181412,103.541557 32.834160,112.060326 
	C30.947010,113.043747 29.156000,114.211655 27.231709,115.618774 
	C27.095314,117.440353 27.005997,118.937172 27.005888,120.433998 
	C26.999252,211.572937 27.017593,302.711884 26.929270,393.850739 
	C26.926052,397.170990 27.758198,398.954742 30.905960,400.523956 
	C105.255547,437.588531 179.537491,474.788818 253.833710,511.960480 
	C254.129562,512.108521 254.452805,512.201721 254.881638,512.660278 
	C170.369980,513.000000 85.739960,513.000000 1.054972,513.000000 
	C1.054972,342.443878 1.054972,171.887711 1.054972,1.000000 
	C82.353928,1.000000 163.708298,1.000000 245.531342,0.999999 
z"/>
</svg>